<?xml version="1.0" encoding="utf-8"?>
<!-- Generator: Adobe Illustrator 23.0.1, SVG Export Plug-In . SVG Version: 6.00 Build 0)  -->
<svg version="1.1" id="Layer_1" xmlns="http://www.w3.org/2000/svg" xmlns:xlink="http://www.w3.org/1999/xlink" x="0px" y="0px"
	 viewBox="0 0 31.05 26.44" style="enable-background:new 0 0 31.05 26.44;" xml:space="preserve">
<g>
	<g>
		<path d="M8.41,26.08H3.06V8.9h5.34V26.08z M5.74,6.55c-1.71,0-3.1-1.39-3.1-3.1c0-1.71,1.38-3.1,3.1-3.1
			c1.71,0,3.09,1.39,3.09,3.1C8.83,5.17,7.45,6.55,5.74,6.55z M28.41,26.08h-5.34v-8.35c0-1.99-0.03-4.56-2.77-4.56
			c-2.78,0-3.2,2.17-3.2,4.41v8.5h-5.33V8.9h5.12v2.35h0.07C17.66,9.9,19.4,8.48,22,8.48c5.41,0,6.41,3.56,6.41,8.18V26.08z"/>
	</g>
</g>
</svg>
